<?xml version="1.0" encoding="UTF-8"?>
<svg id="Warstwa_1" data-name="Warstwa 1" xmlns="http://www.w3.org/2000/svg" viewBox="0 0 192.91 245.37">
  <defs>
    <style>
      .cls-1 {
        opacity: .3;
      }

      .cls-2, .cls-3, .cls-4, .cls-5, .cls-6, .cls-7 {
        stroke-width: 0px;
      }

      .cls-8 {
        fill: none;
        stroke: #000;
        stroke-linecap: square;
        stroke-linejoin: bevel;
        stroke-width: 5px;
      }

      .cls-3 {
        fill: #5d307f;
      }

      .cls-4 {
        fill: #3c1556;
      }

      .cls-5 {
        fill: #c4aa90;
      }

      .cls-6 {
        fill: #fff;
      }

      .cls-7 {
        fill: #e6cfb5;
      }
    </style>
  </defs>
  <circle class="cls-4" cx="96.46" cy="96.46" r="96.46"/>
  <g>
    <g>
      <circle class="cls-2" cx="150.63" cy="161.7" r="11.1"/>
      <circle class="cls-2" cx="150.63" cy="181.6" r="8.93"/>
      <circle class="cls-2" cx="150.63" cy="196.8" r="6.39"/>
      <polygon class="cls-2" points="150.63 203.19 143.93 214.8 157.34 214.8 150.63 203.19"/>
    </g>
    <g>
      <circle class="cls-2" cx="42.28" cy="160.6" r="11.1"/>
      <path class="cls-2" d="m51.21,180.51c0,4.93-4,8.93-8.93,8.93-4.93,0-8.93-4-8.93-8.93s4-8.93,8.93-8.93,8.93,4,8.93,8.93Z"/>
      <path class="cls-2" d="m48.67,195.7c0,3.53-2.86,6.39-6.39,6.39-3.53,0-6.39-2.86-6.39-6.39s2.86-6.39,6.39-6.39c3.53,0,6.39,2.86,6.39,6.39Z"/>
      <polygon class="cls-2" points="42.28 202.09 35.58 213.7 48.98 213.7 42.28 202.09"/>
    </g>
  </g>
  <g class="cls-1">
    <ellipse class="cls-2" cx="96.46" cy="236.46" rx="84.44" ry="8.91"/>
  </g>
  <rect class="cls-7" x="114.11" y="158.06" width="23.69" height="60.5" rx="11.84" ry="11.84" transform="translate(-96.26 144.22) rotate(-45)"/>
  <path class="cls-3" d="m130.76,209.86l-26.03-26.03c-4.63-4.63-4.63-12.13,0-16.75h0c4.63-4.63,12.13-4.63,16.75,0l26.03,26.03"/>
  <rect class="cls-7" x="36.71" y="176.46" width="60.5" height="23.69" rx="11.84" ry="11.84" transform="translate(-113.54 102.5) rotate(-45)"/>
  <path class="cls-3" d="m45.4,193.11l26.03-26.03c4.63-4.63,12.13-4.63,16.75,0h0c4.63,4.63,4.63,12.13,0,16.75l-26.03,26.03"/>
  <path class="cls-7" d="m143.18,53.46H49.73c-13.41,0-24.28,10.87-24.28,24.28v61.45c0,13.41,10.87,24.28,24.28,24.28h29.7c.36-.02.71-.02,1.07,0h31.9c.36-.02.71-.02,1.07,0h29.7c13.41,0,24.28-10.87,24.28-24.28v-61.45c0-13.41-10.87-24.28-24.28-24.28Z"/>
  <path class="cls-6" d="m95.98,164.34c.33.13.65.28.96.45-.31-.16-.63-.31-.96-.45Z"/>
  <path class="cls-6" d="m96.22,163.97c.16.05.31.11.47.16-.16-.06-.31-.12-.47-.16Z"/>
  <path class="cls-6" d="m96.22,164.14c.16-.06.31-.12.47-.16-.16.05-.31.11-.47.16Z"/>
  <path class="cls-6" d="m95.98,164.78c.31-.16.64-.31.96-.45-.33.13-.65.28-.96.45Z"/>
  <path class="cls-6" d="m98.14,164.79c-1.28.66-2.42,1.56-3.37,2.62l.51-.51c.87-.87,1.83-1.57,2.86-2.11Z"/>
  <path class="cls-6" d="m98.14,167.41c-.95-1.06-2.09-1.96-3.37-2.62,1.03.54,2,1.25,2.86,2.11l.51.51Z"/>
  <path class="cls-6" d="m96.19,164.34c.18-.07.36-.13.54-.2-.18.06-.36.12-.54.2Z"/>
  <path class="cls-6" d="m96.45,164.79s.01,0,.02,0c0,0-.01,0-.02,0Z"/>
  <path class="cls-6" d="m97.72,163.46c-1.01.05-2.01.21-2.99.51,1.09-.33,2.25-.51,3.45-.51h-.47Z"/>
  <path class="cls-6" d="m96.99,163.46c-.36-.02-.71-.02-1.07,0h1.07Z"/>
  <path class="cls-6" d="m96.19,164.14c.18.06.36.13.54.2-.18-.07-.36-.13-.54-.2Z"/>
  <path class="cls-6" d="m96.45,164.78s.01,0,.02,0c0,0-.01,0-.02,0Z"/>
  <path class="cls-6" d="m98.18,163.97c-.97-.3-1.98-.47-2.99-.51h-.47c1.2,0,2.36.18,3.45.51Z"/>
  <path class="cls-6" d="m95.92,163.46h1.07c-.36-.02-.71-.02-1.07,0Z"/>
  <path class="cls-6" d="m96.46,203.87h0s0,.04,0,.05h0s0-.03,0-.05Z"/>
  <path class="cls-6" d="m96.46,203.92s0-.03,0-.04h0s0,.03,0,.04Z"/>
  <path class="cls-3" d="m121.83,167.41l-.51-.51c-.87-.87-1.83-1.57-2.86-2.11,0,0-.01,0-.02,0-.31-.16-.64-.31-.96-.45-.18-.07-.36-.13-.54-.2-.16-.06-.31-.12-.47-.16-1.09-.33-2.25-.51-3.45-.51h-33.11c-1.2,0-2.36.18-3.45.51-.16.05-.31.11-.47.16-.18.06-.36.13-.54.2-.33.13-.65.28-.96.45,0,0-.01,0-.02,0-1.03.54-2,1.25-2.86,2.11l-.51.51c-1.88,2.1-3.03,4.86-3.03,7.89v27.31c0,.43.02.85.07,1.26h0s0,.02,0,.04h56.65v.02s0-.01,0-.02c0-.02,0-.03,0-.05h0c.04-.4.07-.82.07-1.25v-27.31c0-3.04-1.15-5.8-3.03-7.89Z"/>
  <path class="cls-6" d="m96.47,203.91h-.02v.39c0-.13.02-.26.02-.39,0,0,0,0,0,0Z"/>
  <polygon class="cls-6" points="96.46 203.91 96.46 203.91 96.46 203.92 96.46 203.91"/>
  <path class="cls-2" d="m124.76,203.92s0,.01,0,.02v-.02h-56.65s0,0,0,0c0,.13-.02.26-.02.39v20.31c0,6.54,5.3,11.84,11.84,11.84s11.84-5.3,11.84-11.84v-10.16h9.31v10.16c0,6.54,5.3,11.84,11.84,11.84s11.84-5.3,11.84-11.84v-20.31c0-.13-.02-.26-.02-.39Z"/>
  <path class="cls-2" d="m91.79,224.61c0,6.54-5.3,11.84-11.84,11.84h0c-6.54,0-11.84-5.3-11.84-11.84"/>
  <rect class="cls-7" x="68.11" y="215.35" width="23.68" height="9.27"/>
  <rect class="cls-7" x="101.15" y="215.35" width="23.68" height="9.27"/>
  <path class="cls-5" d="m108.3,163.45c0,6.54-5.3,11.84-11.84,11.84h0c-6.54,0-11.84-5.3-11.84-11.84"/>
  <line class="cls-8" x1="77.82" y1="140.11" x2="115.09" y2="140.11"/>
  <g>
    <rect class="cls-7" x="12.5" y="92.53" width="41.14" height="31.87" rx="10.24" ry="10.24"/>
    <rect class="cls-7" x="139.28" y="92.53" width="41.14" height="31.87" rx="10.24" ry="10.24"/>
  </g>
  <g>
    <circle class="cls-2" cx="51.33" cy="128.26" r="5.93"/>
    <circle class="cls-2" cx="141.58" cy="128.26" r="5.93"/>
  </g>
  <path class="cls-2" d="m141.78,34.75c-8.4-6.45-18.21-11.14-28.9-13.54-5.29-1.19-10.78-1.84-16.42-1.84-6.51,0-12.82.84-18.84,2.41-10.4,2.71-19.91,7.61-28.02,14.18-16.87,13.66-27.67,34.54-27.67,57.94,0,1.29.03,2.57.1,3.84,26.38-1.15,48.34-19.23,55.33-43.65,5.63,1.74,11.61,2.68,17.81,2.68s12.18-.94,17.81-2.68c7.21,25.2,30.39,43.67,57.9,43.71.07-1.29.1-2.59.1-3.9,0-24.11-11.46-45.53-29.21-59.15Z"/>
</svg>