<?xml version="1.0" encoding="UTF-8"?>
<svg id="Warstwa_1" data-name="Warstwa 1" xmlns="http://www.w3.org/2000/svg" viewBox="0 0 168.88 250.04">
  <defs>
    <style>
      .cls-1 {
        opacity: .3;
      }

      .cls-2, .cls-3, .cls-4, .cls-5, .cls-6, .cls-7 {
        stroke-width: 0px;
      }

      .cls-8 {
        fill: none;
        stroke: #000;
        stroke-linecap: square;
        stroke-linejoin: bevel;
        stroke-width: 5px;
      }

      .cls-3 {
        fill: #ad8c73;
      }

      .cls-4 {
        fill: #c19978;
      }

      .cls-5 {
        fill: #fce275;
      }

      .cls-6 {
        fill: #fff;
      }

      .cls-7 {
        fill: #ffefae;
      }
    </style>
  </defs>
  <g class="cls-1">
    <ellipse class="cls-2" cx="84.44" cy="241.13" rx="84.44" ry="8.91"/>
  </g>
  <g>
    <g>
      <rect class="cls-4" x="102.09" y="162.72" width="23.69" height="60.5" rx="11.84" ry="11.84" transform="translate(-103.08 137.09) rotate(-45)"/>
      <path class="cls-5" d="m118.74,214.52l-26.03-26.03c-4.63-4.63-4.63-12.13,0-16.75h0c4.63-4.63,12.13-4.63,16.75,0l26.03,26.03"/>
    </g>
    <g>
      <rect class="cls-4" x="24.69" y="181.13" width="60.5" height="23.69" rx="11.84" ry="11.84" transform="translate(-120.36 95.37) rotate(-45)"/>
      <path class="cls-5" d="m33.39,197.77l26.03-26.03c4.63-4.63,12.13-4.63,16.75,0h0c4.63,4.63,4.63,12.13,0,16.75l-26.03,26.03"/>
    </g>
  </g>
  <path class="cls-4" d="m131.16,58.13H37.71c-13.41,0-24.28,10.87-24.28,24.28v61.45c0,13.41,10.87,24.28,24.28,24.28h29.7c.36-.02.71-.02,1.07,0h31.9c.36-.02.71-.02,1.07,0h29.7c13.41,0,24.28-10.87,24.28-24.28v-61.45c0-13.41-10.87-24.28-24.28-24.28Z"/>
  <path class="cls-6" d="m83.96,169c.33.13.65.28.96.45-.31-.16-.63-.31-.96-.45Z"/>
  <path class="cls-6" d="m84.2,168.64c.16.05.31.11.47.16-.16-.06-.31-.12-.47-.16Z"/>
  <path class="cls-6" d="m84.2,168.8c.16-.06.31-.12.47-.16-.16.05-.31.11-.47.16Z"/>
  <path class="cls-6" d="m83.96,169.45c.31-.16.64-.31.96-.45-.33.13-.65.28-.96.45Z"/>
  <path class="cls-6" d="m86.12,169.46c-1.28.66-2.42,1.56-3.37,2.62l.51-.51c.87-.87,1.83-1.57,2.86-2.11Z"/>
  <path class="cls-6" d="m86.12,172.08c-.95-1.06-2.09-1.96-3.37-2.62,1.03.54,2,1.25,2.86,2.11l.51.51Z"/>
  <path class="cls-6" d="m84.17,169c.18-.07.36-.13.54-.2-.18.06-.36.12-.54.2Z"/>
  <path class="cls-6" d="m84.43,169.46s.01,0,.02,0c0,0-.01,0-.02,0Z"/>
  <path class="cls-6" d="m85.7,168.13c-1.01.05-2.01.21-2.99.51,1.09-.33,2.25-.51,3.45-.51h-.47Z"/>
  <path class="cls-6" d="m84.97,168.13c-.36-.02-.71-.02-1.07,0h1.07Z"/>
  <path class="cls-6" d="m84.17,168.8c.18.06.36.13.54.2-.18-.07-.36-.13-.54-.2Z"/>
  <path class="cls-6" d="m84.43,169.45s.01,0,.02,0c0,0-.01,0-.02,0Z"/>
  <path class="cls-6" d="m86.16,168.64c-.97-.3-1.98-.47-2.99-.51h-.47c1.2,0,2.36.18,3.45.51Z"/>
  <path class="cls-6" d="m83.9,168.13h1.07c-.36-.02-.71-.02-1.07,0Z"/>
  <path class="cls-6" d="m84.44,208.53h0s0,.04,0,.05h0s0-.03,0-.05Z"/>
  <path class="cls-6" d="m84.44,208.58s0-.03,0-.04h0s0,.03,0,.04Z"/>
  <path class="cls-7" d="m109.81,172.08l-.51-.51c-.87-.87-1.83-1.57-2.86-2.11,0,0-.01,0-.02,0-.31-.16-.64-.31-.96-.45-.18-.07-.36-.13-.54-.2-.16-.06-.31-.12-.47-.16-1.09-.33-2.25-.51-3.45-.51h-33.11c-1.2,0-2.36.18-3.45.51-.16.05-.31.11-.47.16-.18.06-.36.13-.54.2-.33.13-.65.28-.96.45,0,0-.01,0-.02,0-1.03.54-2,1.25-2.86,2.11l-.51.51c-1.88,2.1-3.03,4.86-3.03,7.89v27.31c0,.43.02.85.07,1.26h0s0,.02,0,.04h56.65v.02s0-.01,0-.02c0-.02,0-.03,0-.05h0c.04-.4.07-.82.07-1.25v-27.31c0-3.04-1.15-5.8-3.03-7.89Z"/>
  <path class="cls-6" d="m84.45,208.58h-.02v.39c0-.13.02-.26.02-.39,0,0,0,0,0,0Z"/>
  <polygon class="cls-6" points="84.44 208.58 84.44 208.58 84.44 208.58 84.44 208.58"/>
  <g>
    <path class="cls-2" d="m112.74,208.58s0,.01,0,.02v-.02h-56.65s0,0,0,0c0,.13-.02.26-.02.39v20.31c0,6.54,5.3,11.84,11.84,11.84s11.84-5.3,11.84-11.84v-10.47c0-2.57,2.08-4.66,4.66-4.66s4.66,2.08,4.66,4.66v10.47c0,6.54,5.3,11.84,11.84,11.84s11.84-5.3,11.84-11.84v-20.31c0-.13-.02-.26-.02-.39Z"/>
    <path class="cls-2" d="m79.77,229.28c0,6.54-5.3,11.84-11.84,11.84h0c-6.54,0-11.84-5.3-11.84-11.84"/>
    <rect class="cls-4" x="56.09" y="220.01" width="23.68" height="9.27"/>
    <rect class="cls-4" x="89.13" y="220.01" width="23.68" height="9.27"/>
  </g>
  <path class="cls-3" d="m96.28,168.11c0,6.54-5.3,11.84-11.84,11.84h0c-6.54,0-11.84-5.3-11.84-11.84"/>
  <line class="cls-8" x1="65.81" y1="144.78" x2="103.07" y2="144.78"/>
  <g>
    <rect class="cls-4" x=".48" y="97.19" width="41.14" height="31.87" rx="10.24" ry="10.24"/>
    <rect class="cls-4" x="127.26" y="97.19" width="41.14" height="31.87" rx="10.24" ry="10.24"/>
  </g>
  <g>
    <circle class="cls-2" cx="39.32" cy="132.92" r="5.93"/>
    <circle class="cls-2" cx="129.56" cy="132.92" r="5.93"/>
  </g>
  <g>
    <g>
      <circle class="cls-2" cx="130.34" cy="61.38" r="36.53"/>
      <circle class="cls-2" cx="38.54" cy="61.38" r="36.53"/>
    </g>
    <g>
      <circle class="cls-2" cx="24.13" cy="97.91" r="23.15"/>
      <circle class="cls-2" cx="144.75" cy="97.91" r="23.15"/>
    </g>
    <circle class="cls-2" cx="84.44" cy="36.53" r="36.53"/>
  </g>
</svg>