<?xml version="1.0" encoding="UTF-8"?>
<svg id="Warstwa_1" data-name="Warstwa 1" xmlns="http://www.w3.org/2000/svg" viewBox="0 0 177.92 456.57">
  <defs>
    <style>
      .cls-1 {
        stroke: #000;
        stroke-width: 26px;
      }

      .cls-1, .cls-2, .cls-3 {
        fill: none;
        stroke-linejoin: round;
      }

      .cls-1, .cls-3 {
        stroke-linecap: square;
      }

      .cls-2 {
        stroke: #e5caaa;
        stroke-linecap: round;
      }

      .cls-2, .cls-3 {
        stroke-width: 19px;
      }

      .cls-4 {
        opacity: .3;
      }

      .cls-5, .cls-6, .cls-7, .cls-8 {
        stroke-width: 0px;
      }

      .cls-3 {
        stroke: #fff;
      }

      .cls-6 {
        fill: #4095ae;
      }

      .cls-7 {
        fill: #e2c7aa;
      }

      .cls-8 {
        fill: #c9aa89;
      }
    </style>
  </defs>
  <g>
    <circle class="cls-5" cx="87.64" cy="10.23" r="10.23"/>
    <circle class="cls-5" cx="71.76" cy="12.52" r="7.94"/>
    <circle class="cls-5" cx="61.02" cy="19.18" r="6.66"/>
    <circle class="cls-5" cx="103.52" cy="12.52" r="7.94"/>
    <circle class="cls-5" cx="114.26" cy="19.18" r="6.66"/>
  </g>
  <g class="cls-4">
    <ellipse class="cls-5" cx="88.42" cy="447.66" rx="84.44" ry="8.91"/>
  </g>
  <line class="cls-3" x1="68.28" y1="432.74" x2="68.28" y2="380.88"/>
  <line class="cls-3" x1="110.14" y1="432.74" x2="110.14" y2="380.88"/>
  <rect class="cls-5" x="58.01" y="427.1" width="20.54" height="23.77" rx="8.26" ry="8.26" transform="translate(-370.7 507.26) rotate(-90)"/>
  <rect class="cls-5" x="99.87" y="427.1" width="20.54" height="23.77" rx="8.26" ry="8.26" transform="translate(-328.84 549.12) rotate(-90)"/>
  <path class="cls-5" d="m127.89,217.22c0,21.8-17.67,39.47-39.47,39.47h0c-21.8,0-39.47-17.67-39.47-39.47"/>
  <path class="cls-2" d="m164.92,293.97v-107.07c0-38.58-34.01-69.85-75.96-69.85-41.95,0-75.96,31.27-75.96,69.85v107.07"/>
  <path class="cls-1" d="m164.92,270.55v-83.65c0-38.58-34.01-69.85-75.96-69.85-41.95,0-75.96,31.27-75.96,69.85v83.65"/>
  <polygon class="cls-5" points="92.96 291.49 127.89 291.49 127.69 217.22 88.42 217.22 92.96 291.49"/>
  <rect class="cls-5" x="73.32" y="84.2" width="30.19" height="36.42" rx="8.26" ry="8.26"/>
  <g>
    <polygon class="cls-6" points="86.81 424.89 51.9 424.89 36.4 227.28 87.64 227.28 86.81 424.89"/>
    <polygon class="cls-6" points="90.6 424.89 125.52 424.89 141.02 227.28 89.78 227.28 90.6 424.89"/>
    <path class="cls-6" d="m88.42,158.83h0c29.03,0,52.6,23.57,52.6,52.6v60.34H35.82v-60.34c0-29.03,23.57-52.6,52.6-52.6Z" transform="translate(176.84 430.6) rotate(180)"/>
  </g>
  <path class="cls-5" d="m88.42,110.52h0c29.03,0,52.6,23.57,52.6,52.6v60.34H35.82v-60.34c0-29.03,23.57-52.6,52.6-52.6Z"/>
  <g>
    <circle class="cls-7" cx="88.42" cy="57.29" r="45.12"/>
    <circle class="cls-7" cx="41.74" cy="67.13" r="7.48"/>
    <circle class="cls-7" cx="133.54" cy="67.13" r="7.48"/>
  </g>
  <circle class="cls-5" cx="72.95" cy="64.5" r="4.84"/>
  <circle class="cls-5" cx="101.52" cy="64.5" r="4.84"/>
  <rect class="cls-8" x="83.04" y="59.18" width="9.21" height="20.31" rx="4.6" ry="4.6"/>
</svg>