<?xml version="1.0" encoding="UTF-8"?>
<svg id="Warstwa_1" data-name="Warstwa 1" xmlns="http://www.w3.org/2000/svg" viewBox="0 0 176.45 216.54">
  <defs>
    <style>
      .cls-1 {
        opacity: .3;
      }

      .cls-2, .cls-3, .cls-4, .cls-5, .cls-6 {
        stroke-width: 0px;
      }

      .cls-7 {
        fill: none;
        stroke: #000;
        stroke-linecap: square;
        stroke-linejoin: bevel;
        stroke-width: 5px;
      }

      .cls-3 {
        fill: #c8e09b;
      }

      .cls-4 {
        fill: #ad8c73;
      }

      .cls-5 {
        fill: #ce9976;
      }

      .cls-6 {
        fill: #fff;
      }
    </style>
  </defs>
  <path class="cls-2" d="m170.19,62c-7.36,3.44-15.7,5.4-24.54,5.4-27.55,0-50.24-18.84-53.34-43.11l-4.73-3.91c-3.1,24.27-25.79,43.11-53.34,43.11-8.85,0-17.18-1.95-24.54-5.4-.71,3.89-48.69,127.02,75.64,127.02s85.58-119.17,84.86-123.11Z"/>
  <g class="cls-1">
    <ellipse class="cls-2" cx="89.96" cy="207.63" rx="84.44" ry="8.91"/>
  </g>
  <g>
    <g>
      <rect class="cls-5" x="107.61" y="129.23" width="23.69" height="60.5" rx="11.84" ry="11.84" transform="translate(-77.78 131.18) rotate(-45)"/>
      <path class="cls-5" d="m124.26,181.03l-26.03-26.03c-4.63-4.63-4.63-12.13,0-16.75h0c4.63-4.63,12.13-4.63,16.75,0l26.03,26.03"/>
    </g>
    <g>
      <rect class="cls-5" x="30.21" y="147.63" width="60.5" height="23.69" rx="11.84" ry="11.84" transform="translate(-95.06 89.46) rotate(-45)"/>
      <path class="cls-5" d="m38.91,164.28l26.03-26.03c4.63-4.63,12.13-4.63,16.75,0h0c4.63,4.63,4.63,12.13,0,16.75l-26.03,26.03"/>
    </g>
  </g>
  <path class="cls-5" d="m136.68,24.63H43.23c-13.41,0-24.28,10.87-24.28,24.28v61.45c0,13.41,10.87,24.28,24.28,24.28h29.7c.36-.02.71-.02,1.07,0h31.9c.36-.02.71-.02,1.07,0h29.7c13.41,0,24.28-10.87,24.28-24.28v-61.45c0-13.41-10.87-24.28-24.28-24.28Z"/>
  <path class="cls-6" d="m89.48,135.51c.33.13.65.28.96.45-.31-.16-.63-.31-.96-.45Z"/>
  <path class="cls-6" d="m89.72,135.15c.16.05.31.11.47.16-.16-.06-.31-.12-.47-.16Z"/>
  <path class="cls-6" d="m89.72,135.31c.16-.06.31-.12.47-.16-.16.05-.31.11-.47.16Z"/>
  <path class="cls-6" d="m89.48,135.95c.31-.16.64-.31.96-.45-.33.13-.65.28-.96.45Z"/>
  <path class="cls-6" d="m91.65,135.96c-1.28.66-2.42,1.56-3.37,2.62l.51-.51c.87-.87,1.83-1.57,2.86-2.11Z"/>
  <path class="cls-6" d="m91.65,138.58c-.95-1.06-2.09-1.96-3.37-2.62,1.03.54,2,1.25,2.86,2.11l.51.51Z"/>
  <path class="cls-6" d="m89.69,135.51c.18-.07.36-.13.54-.2-.18.06-.36.12-.54.2Z"/>
  <path class="cls-6" d="m89.95,135.96s.01,0,.02,0c0,0-.01,0-.02,0Z"/>
  <path class="cls-6" d="m91.22,134.63c-1.01.05-2.01.21-2.99.51,1.09-.33,2.25-.51,3.45-.51h-.47Z"/>
  <path class="cls-6" d="m90.5,134.63c-.36-.02-.71-.02-1.07,0h1.07Z"/>
  <path class="cls-6" d="m89.69,135.31c.18.06.36.13.54.2-.18-.07-.36-.13-.54-.2Z"/>
  <path class="cls-6" d="m89.95,135.95s.01,0,.02,0c0,0-.01,0-.02,0Z"/>
  <path class="cls-6" d="m91.69,135.15c-.97-.3-1.98-.47-2.99-.51h-.47c1.2,0,2.36.18,3.45.51Z"/>
  <path class="cls-6" d="m89.42,134.63h1.07c-.36-.02-.71-.02-1.07,0Z"/>
  <path class="cls-6" d="m89.96,175.04h0s0,.04,0,.05h0s0-.03,0-.05Z"/>
  <path class="cls-6" d="m89.96,175.09s0-.03,0-.04h0s0,.03,0,.04Z"/>
  <path class="cls-3" d="m113.93,138.58l-.48-.51c-.82-.87-1.73-1.57-2.71-2.11,0,0,0,0-.01,0-.3-.16-.6-.31-.91-.45-.17-.07-.34-.13-.51-.2-.15-.06-.3-.12-.45-.16-1.03-.33-2.13-.51-3.26-.51h-31.28c-1.13,0-2.23.18-3.26.51-.15.05-.3.11-.45.16-.17.06-.34.13-.51.2-.31.13-.61.28-.91.45,0,0,0,0-.01,0-.97.54-1.89,1.25-2.71,2.11l-.48.51c-1.77,2.1-2.86,4.86-2.86,7.89,0,0,.07,28.59.07,21.37h53.52l.07-21.37c0-3.04-1.09-5.8-2.86-7.89Z"/>
  <path class="cls-6" d="m89.97,175.09h-.02v.39c0-.13.02-.26.02-.39,0,0,0,0,0,0Z"/>
  <polygon class="cls-6" points="89.96 175.09 89.96 175.09 89.96 175.09 89.96 175.09"/>
  <path class="cls-4" d="m101.8,134.62c0,6.54-5.3,11.84-11.84,11.84h0c-6.54,0-11.84-5.3-11.84-11.84"/>
  <line class="cls-7" x1="71.33" y1="111.29" x2="108.59" y2="111.29"/>
  <g>
    <rect class="cls-5" x="6" y="63.7" width="41.14" height="31.87" rx="10.24" ry="10.24"/>
    <rect class="cls-5" x="132.78" y="63.7" width="41.14" height="31.87" rx="10.24" ry="10.24"/>
  </g>
  <g>
    <circle class="cls-2" cx="44.84" cy="99.43" r="5.93"/>
    <circle class="cls-2" cx="135.08" cy="99.43" r="5.93"/>
  </g>
  <path class="cls-2" d="m95.67.22c-1.96-.13-3.93-.22-5.92-.22-.4,0-.79.02-1.19.03C49.49.54,17.08,25.99,9.77,59.64c8.36,4.86,18.29,7.69,28.95,7.69,27.6,0,50.33-18.87,53.43-43.18,3.11,24.31,25.84,43.18,53.43,43.18,8.86,0,17.22-1.96,24.59-5.4C164.11,28.53,133.46,2.68,95.67.22Z"/>
  <path class="cls-2" d="m73.47,207.57c6.54,0,11.84-5.31,11.84-11.84h-23.67c0,6.54,5.3,11.84,11.84,11.84Z"/>
  <path class="cls-2" d="m94.62,195.72c0,2.45.75,4.73,2.02,6.62,1.06,1.58,2.5,2.88,4.18,3.79.67.36,1.38.67,2.12.9.74.23,1.51.39,2.31.47.4.04.8.06,1.21.06.82,0,1.62-.08,2.39-.24s1.51-.39,2.22-.69c.71-.3,1.38-.67,2.01-1.09,3.15-2.13,5.22-5.73,5.22-9.82h-23.69Z"/>
  <path class="cls-6" d="m125.24,195.72l-8.53-27.94-13.06.03h0s-31.62,0-31.62,0l-8.84-.02-8.35,27.94h30.46s0,0,0,0h.01v-10.61c.08-2.5,2.12-4.51,4.64-4.51s4.66,2.08,4.66,4.66v10.47s.06-.05.14-.12v.12h30.48Z"/>
</svg>