<?xml version="1.0" encoding="UTF-8"?>
<svg id="Warstwa_1" data-name="Warstwa 1" xmlns="http://www.w3.org/2000/svg" viewBox="0 0 168.88 380.57">
  <defs>
    <style>
      .cls-1, .cls-2 {
        stroke-linecap: round;
      }

      .cls-1, .cls-2, .cls-3, .cls-4 {
        stroke-linejoin: round;
      }

      .cls-1, .cls-2, .cls-5, .cls-6, .cls-7, .cls-4 {
        fill: none;
      }

      .cls-1, .cls-3, .cls-7 {
        stroke: #d66168;
      }

      .cls-2, .cls-5 {
        stroke: #e8c0aa;
      }

      .cls-2, .cls-5, .cls-6, .cls-4 {
        stroke-width: 19px;
      }

      .cls-3 {
        stroke-width: 27px;
      }

      .cls-3, .cls-4 {
        stroke-linecap: square;
      }

      .cls-3, .cls-8 {
        fill: #d66168;
      }

      .cls-5, .cls-6, .cls-7 {
        stroke-miterlimit: 10;
      }

      .cls-6 {
        stroke: #c19978;
      }

      .cls-9 {
        opacity: .3;
      }

      .cls-10, .cls-8, .cls-11, .cls-12, .cls-13 {
        stroke-width: 0px;
      }

      .cls-4 {
        stroke: #fff;
      }

      .cls-11 {
        fill: #bc917e;
      }

      .cls-12 {
        fill: #fff;
      }

      .cls-13 {
        fill: #e8c0aa;
      }
    </style>
  </defs>
  <circle class="cls-10" cx="83.66" cy="59.08" r="55.22"/>
  <line class="cls-6" x1="106.16" y1="342.22" x2="106.16" y2="211.67"/>
  <g class="cls-9">
    <ellipse class="cls-10" cx="84.44" cy="371.66" rx="84.44" ry="8.91"/>
  </g>
  <line class="cls-2" x1="106.16" y1="354.92" x2="106.16" y2="211.67"/>
  <line class="cls-5" x1="64.3" y1="342.22" x2="64.3" y2="211.67"/>
  <line class="cls-4" x1="64.3" y1="356.74" x2="64.3" y2="352.71"/>
  <line class="cls-4" x1="106.16" y1="356.74" x2="106.16" y2="352.71"/>
  <rect class="cls-10" x="54.03" y="351.09" width="20.54" height="23.77" rx="8.26" ry="8.26" transform="translate(-298.68 427.28) rotate(-90)"/>
  <rect class="cls-10" x="95.88" y="351.09" width="20.54" height="23.77" rx="8.26" ry="8.26" transform="translate(-256.82 469.13) rotate(-90)"/>
  <path class="cls-8" d="m148.08,291.26l-25-130.77v-.97c0-21.52-17.23-39.01-38.64-39.45v-.02c-.14,0-.28,0-.42.01-.14,0-.28-.01-.42-.01v.02c-21.41.44-38.64,17.93-38.64,39.45v.97l-25,130.77h128.11Z"/>
  <path class="cls-2" d="m145.66,242.18v-54.04c0-33.51-27.17-60.68-60.68-60.68-33.51,0-60.68,27.17-60.68,60.68v54.89"/>
  <path class="cls-3" d="m137.54,157.8c-10.49-18.14-30.1-30.34-52.56-30.34-22.19,0-41.6,11.91-52.18,29.69"/>
  <rect class="cls-13" x="76.18" y="96.09" width="16.51" height="36.42" rx="8.26" ry="8.26"/>
  <g>
    <circle class="cls-13" cx="84.44" cy="69.18" r="45.12"/>
    <circle class="cls-13" cx="37.76" cy="79.02" r="7.48"/>
    <circle class="cls-13" cx="129.56" cy="79.02" r="7.48"/>
  </g>
  <circle class="cls-10" cx="68.96" cy="76.38" r="4.84"/>
  <circle class="cls-10" cx="97.53" cy="76.38" r="4.84"/>
  <circle class="cls-10" cx="122.08" cy="31.66" r="31.66"/>
  <circle class="cls-10" cx="85.17" cy="21.9" r="15.83"/>
  <circle class="cls-10" cx="45.23" cy="31.66" r="31.66"/>
  <rect class="cls-11" x="79.05" y="71.07" width="9.21" height="20.31" rx="4.6" ry="4.6"/>
  <g>
    <circle class="cls-7" cx="61.85" cy="79.02" r="16.62"/>
    <circle class="cls-7" cx="105.46" cy="79.02" r="16.62"/>
    <path class="cls-1" d="m78.1,81.77c0-3.04,2.47-5.51,5.51-5.51s5.51,2.47,5.51,5.51"/>
  </g>
  <g>
    <path class="cls-13" d="m110.2,117.61c-7.7-3.1-16.23-4.84-25.23-4.84s-17.53,1.74-25.23,4.84l25.23,25.23,25.23-25.23Z"/>
    <path class="cls-10" d="m59.63,117.48c-.09.09-.16.18-.24.27.12-.05.24-.1.36-.15l-.12-.12Z"/>
    <path class="cls-12" d="m59.63,142.83c7,7,18.35,7,25.35,0l-25.23-25.23c-.12.05-.24.1-.36.15-6.74,7.02-6.67,18.17.24,25.08Z"/>
    <path class="cls-10" d="m110.32,117.48l-.12.12c.12.05.24.1.36.15-.08-.09-.16-.18-.24-.27Z"/>
    <path class="cls-12" d="m110.32,142.83c6.91-6.91,6.99-18.06.24-25.08-.12-.05-.24-.1-.36-.15l-25.23,25.23c7,7,18.35,7,25.35,0Z"/>
  </g>
</svg>