<?xml version="1.0" encoding="UTF-8"?>
<svg id="Warstwa_1" data-name="Warstwa 1" xmlns="http://www.w3.org/2000/svg" viewBox="0 0 244.97 252.72">
  <defs>
    <style>
      .cls-1 {
        stroke-linecap: round;
        stroke-linejoin: round;
      }

      .cls-1, .cls-2 {
        stroke: #d66168;
      }

      .cls-1, .cls-2, .cls-3 {
        fill: none;
      }

      .cls-2 {
        stroke-miterlimit: 10;
      }

      .cls-4 {
        opacity: .3;
      }

      .cls-5, .cls-6, .cls-7, .cls-8 {
        stroke-width: 0px;
      }

      .cls-3 {
        stroke: #000;
        stroke-linecap: square;
        stroke-linejoin: bevel;
        stroke-width: 5px;
      }

      .cls-6 {
        fill: #d66168;
      }

      .cls-7 {
        fill: #fff;
      }

      .cls-8 {
        fill: #e8c0aa;
      }
    </style>
  </defs>
  <circle class="cls-5" cx="122.49" cy="103.25" r="96.51"/>
  <path class="cls-8" d="m170.94,60.81h-93.45c-13.41,0-24.28,10.87-24.28,24.28v61.45c0,13.41,10.87,24.28,24.28,24.28h29.7c.36-.02.71-.02,1.07,0h31.9c.36-.02.71-.02,1.07,0h29.7c13.41,0,24.28-10.87,24.28-24.28v-61.45c0-13.41-10.87-24.28-24.28-24.28Z"/>
  <path class="cls-7" d="m123.73,171.69c.33.13.65.28.96.45-.31-.16-.63-.31-.96-.45Z"/>
  <path class="cls-7" d="m123.98,171.33c.16.05.31.11.47.16-.16-.06-.31-.12-.47-.16Z"/>
  <path class="cls-7" d="m123.98,171.49c.16-.06.31-.12.47-.16-.16.05-.31.11-.47.16Z"/>
  <path class="cls-7" d="m123.73,172.14c.31-.16.64-.31.96-.45-.33.13-.65.28-.96.45Z"/>
  <path class="cls-7" d="m125.9,172.14c-1.28.66-2.42,1.56-3.37,2.62l.51-.51c.87-.87,1.83-1.57,2.86-2.11Z"/>
  <path class="cls-7" d="m125.9,174.76c-.95-1.06-2.09-1.96-3.37-2.62,1.03.54,2,1.25,2.86,2.11l.51.51Z"/>
  <path class="cls-7" d="m123.94,171.69c.18-.07.36-.13.54-.2-.18.06-.36.12-.54.2Z"/>
  <path class="cls-7" d="m124.2,172.14s.01,0,.02,0c0,0-.01,0-.02,0Z"/>
  <path class="cls-7" d="m125.47,170.81c-1.01.05-2.01.21-2.99.51,1.09-.33,2.25-.51,3.45-.51h-.47Z"/>
  <path class="cls-7" d="m124.75,170.81c-.36-.02-.71-.02-1.07,0h1.07Z"/>
  <path class="cls-7" d="m123.94,171.49c.18.06.36.13.54.2-.18-.07-.36-.13-.54-.2Z"/>
  <path class="cls-7" d="m124.2,172.14s.01,0,.02,0c0,0-.01,0-.02,0Z"/>
  <path class="cls-7" d="m125.94,171.33c-.97-.3-1.98-.47-2.99-.51h-.47c1.2,0,2.36.18,3.45.51Z"/>
  <path class="cls-7" d="m123.68,170.81h1.07c-.36-.02-.71-.02-1.07,0Z"/>
  <line class="cls-3" x1="105.58" y1="147.47" x2="142.85" y2="147.47"/>
  <g>
    <rect class="cls-8" x="40.26" y="99.88" width="41.14" height="31.87" rx="10.24" ry="10.24"/>
    <rect class="cls-8" x="167.03" y="99.88" width="41.14" height="31.87" rx="10.24" ry="10.24"/>
  </g>
  <g>
    <circle class="cls-5" cx="79.09" cy="135.61" r="5.93"/>
    <circle class="cls-5" cx="169.34" cy="135.61" r="5.93"/>
  </g>
  <circle class="cls-5" cx="189.64" cy="55.33" r="55.33"/>
  <circle class="cls-5" cx="125.13" cy="38.27" r="27.66"/>
  <circle class="cls-5" cx="55.33" cy="55.33" r="55.33"/>
  <g>
    <circle class="cls-2" cx="79.81" cy="129.68" r="34.45"/>
    <circle class="cls-2" cx="170.19" cy="129.68" r="34.45"/>
    <path class="cls-1" d="m113.48,135.39c0-6.31,5.11-11.42,11.42-11.42s11.42,5.11,11.42,11.42"/>
  </g>
  <g class="cls-4">
    <ellipse class="cls-5" cx="124.99" cy="243.81" rx="84.44" ry="8.91"/>
  </g>
  <g>
    <g>
      <rect class="cls-8" x="142.65" y="165.41" width="23.69" height="60.5" rx="11.84" ry="11.84" transform="translate(-93.1 166.55) rotate(-45)"/>
      <path class="cls-8" d="m159.29,217.21l-26.03-26.03c-4.63-4.63-4.63-12.13,0-16.75h0c4.63-4.63,12.13-4.63,16.75,0l26.03,26.03"/>
    </g>
    <g>
      <rect class="cls-8" x="65.24" y="183.82" width="60.5" height="23.69" rx="11.84" ry="11.84" transform="translate(-110.38 124.83) rotate(-45)"/>
      <path class="cls-8" d="m73.94,200.46l26.03-26.03c4.63-4.63,12.13-4.63,16.75,0h0c4.63,4.63,4.63,12.13,0,16.75l-26.03,26.03"/>
    </g>
  </g>
  <path class="cls-7" d="m125,211.22h0s0,.04,0,.05h0s0-.03,0-.05Z"/>
  <path class="cls-7" d="m124.99,211.27s0-.03,0-.04h0s0,.03,0,.04Z"/>
  <path class="cls-7" d="m125,211.27h-.02v.39c0-.13.02-.26.02-.39,0,0,0,0,0,0Z"/>
  <path class="cls-6" d="m151.82,182.66c0-3.04-1.09-5.8-2.86-7.89l-.48-.51c-.82-.87-1.73-1.57-2.71-2.11h-.01c-.3-.17-.6-.32-.91-.45-.17-.07-.34-.13-.51-.2-.15-.06-.29-.12-.45-.17-1.03-.33-2.13-.51-3.26-.51h-31.28c-1.13,0-2.23.18-3.26.51-.15.05-.3.11-.45.17-.17.06-.34.13-.51.2-.31.13-.61.28-.91.45h-.01c-.97.55-1.89,1.25-2.71,2.12l-.48.51c-1.77,2.1-2.86,4.86-2.86,7.89l-8.28,49.25h30.46s39.93,0,39.93,0l-8.45-49.25Z"/>
  <polygon class="cls-7" points="124.99 211.27 124.99 211.27 124.99 211.27 124.99 211.27"/>
  <path class="cls-8" d="m136.84,170.8c0,6.54-5.3,11.84-11.84,11.84h0c-6.54,0-11.84-5.3-11.84-11.84"/>
  <path class="cls-5" d="m108.51,243.75c6.54,0,11.84-5.31,11.84-11.84h-23.67c0,6.54,5.3,11.84,11.84,11.84Z"/>
  <path class="cls-5" d="m129.66,231.91c0,2.45.75,4.73,2.02,6.62,1.06,1.58,2.5,2.88,4.18,3.79.67.36,1.38.67,2.12.9.74.23,1.51.39,2.31.47.4.04.8.06,1.21.06.82,0,1.62-.08,2.39-.24s1.51-.39,2.22-.69c.71-.3,1.38-.67,2.01-1.09,3.15-2.13,5.22-5.73,5.22-9.82h-23.69Z"/>
</svg>