<?xml version="1.0" encoding="UTF-8"?>
<svg id="Warstwa_1" data-name="Warstwa 1" xmlns="http://www.w3.org/2000/svg" viewBox="0 0 168.88 471.89">
  <defs>
    <style>
      .cls-1, .cls-2, .cls-3, .cls-4, .cls-5, .cls-6 {
        fill: none;
      }

      .cls-1, .cls-7, .cls-8, .cls-9, .cls-10 {
        stroke-width: 0px;
      }

      .cls-2 {
        stroke-linecap: round;
      }

      .cls-2, .cls-3 {
        stroke: #e6cfb5;
      }

      .cls-2, .cls-3, .cls-4, .cls-5, .cls-6 {
        stroke-width: 19px;
      }

      .cls-2, .cls-5, .cls-6 {
        stroke-linejoin: round;
      }

      .cls-3, .cls-4 {
        stroke-miterlimit: 10;
      }

      .cls-4 {
        stroke: #c19978;
      }

      .cls-11 {
        opacity: .3;
      }

      .cls-5 {
        stroke: #fff;
      }

      .cls-5, .cls-6 {
        stroke-linecap: square;
      }

      .cls-6 {
        stroke: #3c1556;
      }

      .cls-8 {
        fill: #3c1556;
      }

      .cls-9 {
        fill: #c4aa90;
      }

      .cls-10 {
        fill: #e6cfb5;
      }
    </style>
  </defs>
  <circle class="cls-8" cx="83.66" cy="65.4" r="65.4"/>
  <g class="cls-11">
    <ellipse class="cls-7" cx="84.44" cy="462.98" rx="84.44" ry="8.91"/>
  </g>
  <line class="cls-4" x1="106.16" y1="433.54" x2="106.16" y2="245.86"/>
  <line class="cls-2" x1="106.16" y1="446.24" x2="106.16" y2="245.86"/>
  <line class="cls-3" x1="64.3" y1="433.54" x2="64.3" y2="245.86"/>
  <line class="cls-5" x1="64.3" y1="448.05" x2="64.3" y2="326.94"/>
  <line class="cls-5" x1="106.16" y1="448.05" x2="106.16" y2="326.94"/>
  <rect class="cls-7" x="54.03" y="442.41" width="20.54" height="23.77" rx="8.26" ry="8.26" transform="translate(-390 518.59) rotate(-90)"/>
  <rect class="cls-7" x="95.88" y="442.41" width="20.54" height="23.77" rx="8.26" ry="8.26" transform="translate(-348.14 560.45) rotate(-90)"/>
  <path class="cls-7" d="m44.97,302.36v-143.85c0-21.8,17.67-39.47,39.47-39.47h0c21.8,0,39.47,17.67,39.47,39.47v143.85"/>
  <path class="cls-7" d="m123.91,225.33c0,21.8-17.67,39.47-39.47,39.47h0c-21.8,0-39.47-17.67-39.47-39.47"/>
  <path class="cls-2" d="m145.66,297.73v-113.36c0-33.51-27.17-60.68-60.68-60.68-33.51,0-60.68,27.17-60.68,60.68v113.36"/>
  <path class="cls-6" d="m24.29,283.32v-98.95c0-33.51,27.17-60.68,60.68-60.68,33.51,0,60.68,27.17,60.68,60.68v98.95"/>
  <path class="cls-8" d="m44.97,274.6v-119.52c0-21.8,17.67-39.47,39.47-39.47h0c21.8,0,39.47,17.67,39.47,39.47v119.52s-78.94,0-78.94,0Z"/>
  <rect class="cls-9" x="76.18" y="92.31" width="16.51" height="36.42" rx="8.26" ry="8.26"/>
  <path class="cls-10" d="m129.56,67.77s-.04,0-.06,0c0,0,0,0,0,0-16.66-.03-30.69-11.21-35.05-26.47-3.41,1.05-7.03,1.62-10.79,1.62s-7.38-.57-10.79-1.62c-4.23,14.78-17.53,25.73-33.5,26.43,0,.08.01.15.02.23-.53-.12-1.07-.18-1.64-.18-4.13,0-7.48,3.35-7.48,7.48s3.35,7.48,7.48,7.48c1.66,0,3.19-.55,4.43-1.46,6.42,17.1,22.91,29.27,42.25,29.27s35.34-11.82,41.95-28.52c.96.45,2.03.71,3.17.71,4.13,0,7.48-3.35,7.48-7.48s-3.35-7.48-7.48-7.48Z"/>
  <path class="cls-7" d="m111.88,29.59c-5.09-3.9-11.03-6.74-17.5-8.2-3.2-.72-6.53-1.11-9.94-1.11-3.94,0-7.76.51-11.4,1.46-6.3,1.64-12.05,4.61-16.96,8.58-10.22,8.27-16.75,20.91-16.75,35.08,0,.78.02,1.55.06,2.32,15.97-.7,29.27-11.64,33.5-26.43,3.41,1.05,7.03,1.62,10.79,1.62s7.38-.57,10.79-1.62c4.37,15.26,18.4,26.44,35.05,26.47.04-.78.06-1.57.06-2.36,0-14.59-6.94-27.56-17.68-35.81Z"/>
  <circle class="cls-7" cx="68.96" cy="72.61" r="4.84"/>
  <circle class="cls-7" cx="97.53" cy="72.61" r="4.84"/>
  <rect class="cls-9" x="79.05" y="67.29" width="9.21" height="20.31" rx="4.6" ry="4.6"/>
  <path class="cls-1" d="m39.37,67.73c-.54.02-1.08.04-1.62.04.56,0,1.11.07,1.64.18,0-.08-.01-.15-.02-.23Z"/>
  <path class="cls-1" d="m129.5,67.77s.04,0,.06,0c-.02,0-.04,0-.06,0,0,0,0,0,0,0Z"/>
  <g>
    <circle class="cls-7" cx="125.97" cy="103.45" r="11.1"/>
    <circle class="cls-7" cx="140.04" cy="117.52" r="8.93"/>
    <circle class="cls-7" cx="150.79" cy="128.27" r="6.39"/>
    <polygon class="cls-7" points="155.31 132.79 158.78 145.74 168.26 136.26 155.31 132.79"/>
  </g>
  <g>
    <circle class="cls-7" cx="43.08" cy="103.45" r="11.1"/>
    <circle class="cls-7" cx="29" cy="117.52" r="8.93"/>
    <circle class="cls-7" cx="18.26" cy="128.27" r="6.39"/>
    <polygon class="cls-7" points="13.74 132.79 .79 136.26 10.27 145.74 13.74 132.79"/>
  </g>
</svg>