<?xml version="1.0" encoding="UTF-8"?>
<svg id="Warstwa_1" data-name="Warstwa 1" xmlns="http://www.w3.org/2000/svg" viewBox="0 0 168.88 409.89">
  <defs>
    <style>
      .cls-1 {
        stroke-linecap: round;
      }

      .cls-1, .cls-2 {
        stroke: #ce9976;
      }

      .cls-1, .cls-2, .cls-3, .cls-4 {
        fill: none;
        stroke-width: 19px;
      }

      .cls-1, .cls-4 {
        stroke-linejoin: round;
      }

      .cls-2, .cls-3 {
        stroke-miterlimit: 10;
      }

      .cls-3 {
        stroke: #c19978;
      }

      .cls-5 {
        opacity: .3;
      }

      .cls-6, .cls-7, .cls-8, .cls-9 {
        stroke-width: 0px;
      }

      .cls-4 {
        stroke: #fff;
        stroke-linecap: square;
      }

      .cls-7 {
        fill: #c8e09b;
      }

      .cls-8 {
        fill: #b28362;
      }

      .cls-9 {
        fill: #ce9976;
      }
    </style>
  </defs>
  <path class="cls-6" d="m81.44,215.39c115.76,0,54.79-168.4,54.32-171.22-4.78,2.46-10.19,3.85-15.93,3.85-17.88,0-32.61-13.46-34.62-30.8"/>
  <path class="cls-6" d="m85.92,212.6c-115.76,0-54.79-168.4-54.32-171.22,4.78,2.46,10.19,3.85,15.93,3.85,17.88,0,32.61-13.46,34.62-30.8"/>
  <g class="cls-5">
    <ellipse class="cls-6" cx="84.44" cy="400.98" rx="84.44" ry="8.91"/>
  </g>
  <path class="cls-1" d="m145.66,249.94v-70.45c0-33.51-27.17-60.68-60.68-60.68-33.51,0-60.68,27.17-60.68,60.68v71.3"/>
  <path class="cls-7" d="m44.97,196.75v-42.76c0-21.8,17.67-39.47,39.47-39.47h0c21.8,0,39.47,17.67,39.47,39.47v42.76"/>
  <line class="cls-3" x1="106.16" y1="371.54" x2="106.16" y2="240.99"/>
  <line class="cls-1" x1="106.16" y1="384.24" x2="106.16" y2="240.99"/>
  <line class="cls-2" x1="64.3" y1="371.54" x2="64.3" y2="240.99"/>
  <line class="cls-4" x1="64.3" y1="386.06" x2="64.3" y2="372.88"/>
  <line class="cls-4" x1="106.16" y1="386.06" x2="106.16" y2="372.88"/>
  <g>
    <rect class="cls-6" x="54.03" y="380.41" width="20.54" height="23.77" rx="8.26" ry="8.26" transform="translate(-328 456.6) rotate(-90)"/>
    <rect class="cls-6" x="95.88" y="380.41" width="20.54" height="23.77" rx="8.26" ry="8.26" transform="translate(-286.14 498.46) rotate(-90)"/>
  </g>
  <polygon class="cls-6" points="81.77 196.75 124.05 196.75 154.31 351.68 89.63 351.68 81.77 196.75"/>
  <polygon class="cls-6" points="88.69 196.75 46.41 196.75 16.14 351.68 81.44 351.68 88.69 196.75"/>
  <rect class="cls-9" x="76.18" y="87.44" width="16.51" height="36.42" rx="8.26" ry="8.26"/>
  <g>
    <circle class="cls-9" cx="84.44" cy="60.53" r="45.12"/>
    <circle class="cls-9" cx="37.76" cy="70.37" r="7.48"/>
    <circle class="cls-9" cx="129.56" cy="70.37" r="7.48"/>
  </g>
  <circle class="cls-6" cx="68.96" cy="67.73" r="4.84"/>
  <circle class="cls-6" cx="97.53" cy="67.73" r="4.84"/>
  <path class="cls-6" d="m87.5.15c-1.27-.09-2.55-.15-3.84-.15-.26,0-.51.02-.77.02,1.17,2.86,1.96,5.91,2.33,9.09.36-3.13,1.14-6.13,2.28-8.95Z"/>
  <path class="cls-6" d="m85.22,17.23c-.15-1.33-.24-2.68-.24-4.06s.09-2.73.24-4.06c-.37-3.18-1.16-6.23-2.33-9.09-25.31.36-46.31,18.52-51.05,42.52,5.42,3.47,11.85,5.48,18.76,5.48,17.88,0,32.61-13.46,34.62-30.8Z"/>
  <path class="cls-6" d="m87.5.15c-1.14,2.82-1.91,5.82-2.28,8.95.15,1.33.24,2.69.24,4.06s-.09,2.73-.24,4.06c2.01,17.34,16.74,30.8,34.62,30.8,5.74,0,11.15-1.4,15.93-3.85C131.84,20.35,111.98,1.91,87.5.15Z"/>
  <path class="cls-6" d="m85.22,17.23c.15-1.33.24-2.68.24-4.06s-.09-2.73-.24-4.06c-.15,1.33-.24,2.69-.24,4.06s.09,2.73.24,4.06Z"/>
  <rect class="cls-8" x="79.05" y="62.42" width="9.21" height="20.31" rx="4.6" ry="4.6"/>
</svg>